<?xml version="1.0" encoding="UTF-8"?>
<svg id="Layer_2" data-name="Layer 2" xmlns="http://www.w3.org/2000/svg" viewBox="0 0 276.94 274.72">
  <defs>
    <style>
      .cls-1 {
        fill: #214d55;
        stroke-width: 0px;
      }
    </style>
  </defs>
  <g id="Layer_3" data-name="Layer 3">
    <g>
      <path class="cls-1" d="M266.44,169.15h-58.34c-5.26-.22-10.56-.21-15.82-.21h-.87s0-1.65,0-1.65c.04-21.29.09-45.42-16.16-61.67-.01-.01-.03-.03-.05-.04h91.23c5.79,0,10.5-4.71,10.5-10.5s-4.71-10.5-10.5-10.5h-75.19V10.5c0-5.79-4.71-10.5-10.5-10.5s-10.5,4.71-10.5,10.5v74.07h-63.57V10.5c0-5.79-4.71-10.5-10.5-10.5s-10.5,4.71-10.5,10.5v74.07H10.5c-5.79,0-10.5,4.71-10.5,10.5s4.71,10.5,10.5,10.5h75.19v63.57H10.5c-5.79,0-10.5,4.71-10.5,10.5s4.71,10.5,10.5,10.5h75.19v74.07c0,5.79,4.71,10.5,10.5,10.5s10.5-4.71,10.5-10.5v-90.09c17.75,16.27,40.47,16.25,62.44,16.23h.87s0,1.66,0,1.66c-.01,5.58-.02,11.35.26,17.13v55.08c0,5.79,4.71,10.5,10.5,10.5s10.5-4.71,10.5-10.5v-6.06c8.65,6.69,19,10.41,29.76,10.56.23,0,.46,0,.69,0,12.76,0,24.78-5.01,33.92-14.15,9.69-9.69,15.13-21.76,15.31-33.97.16-10.9-3.87-21.57-11.42-30.45h6.92c5.79,0,10.5-4.71,10.5-10.5s-4.71-10.5-10.5-10.5ZM122.04,120.98c5.16-5.16,11.92-7.73,18.7-7.73s13.54,2.58,18.7,7.73c10.38,10.38,10.5,25.86,10.62,40.84.02,2.54.04,4.97.11,7.36-16.42.22-36.83.49-48.8-11.48-10.44-10.44-10.16-25.89.67-36.72ZM191.26,190.15h13.56c13,.45,26.4,2.62,35.22,11.44,10.44,10.44,10.16,25.89-.67,36.72-10.31,10.31-27.08,10.31-37.4,0-10.38-10.38-10.5-25.86-10.62-40.89-.02-2.19-.04-4.29-.09-6.35v-.91Z"/>
      <path class="cls-1" d="M80.9,204.32c0-2.8-1.09-5.44-3.08-7.43-4.09-4.09-10.75-4.09-14.85,0l-14.19,14.19-14.19-14.19c-1.98-1.98-4.62-3.08-7.42-3.08s-5.44,1.09-7.42,3.08c-4.09,4.09-4.09,10.76,0,14.85l14.19,14.19-14.19,14.19c-1.98,1.98-3.08,4.62-3.08,7.42s1.09,5.44,3.08,7.42c1.98,1.98,4.62,3.08,7.42,3.08s5.44-1.09,7.42-3.08l14.19-14.19,14.19,14.19c1.98,1.98,4.62,3.08,7.42,3.08s5.44-1.09,7.42-3.08c1.98-1.98,3.08-4.62,3.08-7.42s-1.09-5.44-3.08-7.42l-14.19-14.19,14.19-14.19c1.98-1.98,3.08-4.62,3.08-7.42Z"/>
    </g>
  </g>
</svg>