<?xml version="1.0" encoding="UTF-8"?>
<svg id="Layer_2" data-name="Layer 2" xmlns="http://www.w3.org/2000/svg" viewBox="0 0 61.23 61.23">
  <defs>
    <style>
      .cls-1 {
        fill: #231f20;
        stroke-width: 0px;
      }
    </style>
  </defs>
  <g id="Layer_1-2" data-name="Layer 1">
    <path class="cls-1" d="M43.34,30.61l15.25-15.25c3.51-3.51,3.52-9.21,0-12.73-3.52-3.51-9.21-3.51-12.73,0l-15.25,15.25L15.36,2.64C11.85-.88,6.15-.88,2.64,2.64c-3.51,3.51-3.51,9.21,0,12.73l15.25,15.25-15.25,15.25c-3.51,3.51-3.52,9.21,0,12.73,1.76,1.76,4.06,2.64,6.36,2.64s4.61-.88,6.36-2.64l15.25-15.25,15.25,15.25c1.76,1.76,4.06,2.64,6.36,2.64s4.61-.88,6.36-2.64c3.51-3.51,3.51-9.21,0-12.73l-15.25-15.25Z"/>
  </g>
</svg>